<svg xmlns="http://www.w3.org/2000/svg" viewBox="0 0 84 60" fill="none">
  <defs>
    <linearGradient id="vg" x1="0" y1="0" x2="84" y2="0" gradientUnits="userSpaceOnUse">
      <stop offset="0%" stop-color="#e879f9"/>
      <stop offset="50%" stop-color="#818cf8"/>
      <stop offset="100%" stop-color="#38bdf8"/>
    </linearGradient>
  </defs>
  <path d="M4,0 C-4,22 18,48 40,54 C68,64 80,16 72,0" stroke="url(#vg)" stroke-width="3.5" stroke-linecap="round"/>
  <path d="M8,1 C4,26 22,49 40,54 C64,60 76,20 68,2" stroke="url(#vg)" stroke-width="3.5" stroke-linecap="round"/>
  <path d="M12,2 C12,30 26,50 40,54 C60,56 72,24 64,4" stroke="url(#vg)" stroke-width="3.5" stroke-linecap="round"/>
  <path d="M16,3 C20,34 30,51 40,54 C56,52 68,28 60,6" stroke="url(#vg)" stroke-width="3.5" stroke-linecap="round"/>
  <path d="M20,4 C28,38 34,52 40,54 C52,48 64,32 56,8" stroke="url(#vg)" stroke-width="3.5" stroke-linecap="round"/>
</svg>
